<svg version="1.2" baseProfile="tiny-ps" xmlns="http://www.w3.org/2000/svg" viewBox="0 0 427 427" width="427" height="427">
	<title>enter-svg</title>
	<style>
		tspan { white-space:pre }
		.shp0 { fill: #000000 } 
	</style>
	<g id="Layer">
		<path id="path1275" fill-rule="evenodd" class="shp0" d="M63.92 42.63L362.67 42.63C397.76 42.63 426.58 71.46 426.58 106.55L426.58 277.26C426.58 312.35 397.76 341.22 362.67 341.22L333.67 341.22L317.46 372.38C317.11 373.06 316.72 373.72 316.31 374.35C309.82 384.19 296.59 386.91 286.75 380.42L228.17 341.22L63.92 341.22C28.82 341.22 0 312.35 0 277.26L0 106.55C0 71.46 28.82 42.63 63.92 42.63L63.92 42.63ZM262.16 134.09L191.96 204.34L164.37 176.8C163.96 176.35 163.53 175.92 163.08 175.5C154.38 167.52 140.85 168.1 132.87 176.8C124.88 185.5 125.47 199.03 134.17 207.01L176.83 249.72C176.86 249.75 176.88 249.77 176.91 249.8C185.26 258.11 198.77 258.07 207.08 249.72L292.25 164.34C296.56 160.18 298.91 154.4 298.75 148.42C298.42 136.64 288.61 127.35 276.83 127.68L276.83 127.63C271.29 127.8 266.03 130.12 262.16 134.09Z" />
	</g>
</svg>