<svg width="0" height="0" class="hidden">
  <symbol version="1.2" baseProfile="tiny-ps" xmlns="http://www.w3.org/2000/svg" viewBox="0 0 30 30" id="close">
    <title>Vector-svg</title>
    <path id="Layer" d="M16.36 15L30 28.64L28.64 30L15 16.36L1.36 30L0 28.64L13.64 15L0 1.36L1.36 0L15 13.64L28.64 0L30 1.36L16.36 15Z"></path>
  </symbol>
  <symbol version="1.2" baseProfile="tiny-ps" xmlns="http://www.w3.org/2000/svg" viewBox="0 0 427 427" id="bubble-checked">
    <title>enter-svg</title>
    <g id="Layer">
      <path id="path1275" fill-rule="evenodd" d="M63.92 42.63L362.67 42.63C397.76 42.63 426.58 71.46 426.58 106.55L426.58 277.26C426.58 312.35 397.76 341.22 362.67 341.22L333.67 341.22L317.46 372.38C317.11 373.06 316.72 373.72 316.31 374.35C309.82 384.19 296.59 386.91 286.75 380.42L228.17 341.22L63.92 341.22C28.82 341.22 0 312.35 0 277.26L0 106.55C0 71.46 28.82 42.63 63.92 42.63L63.92 42.63ZM262.16 134.09L191.96 204.34L164.37 176.8C163.96 176.35 163.53 175.92 163.08 175.5C154.38 167.52 140.85 168.1 132.87 176.8C124.88 185.5 125.47 199.03 134.17 207.01L176.83 249.72C176.86 249.75 176.88 249.77 176.91 249.8C185.26 258.11 198.77 258.07 207.08 249.72L292.25 164.34C296.56 160.18 298.91 154.4 298.75 148.42C298.42 136.64 288.61 127.35 276.83 127.68L276.83 127.63C271.29 127.8 266.03 130.12 262.16 134.09Z"></path>
    </g>
  </symbol>
  <symbol version="1.2" baseProfile="tiny-ps" xmlns="http://www.w3.org/2000/svg" viewBox="0 0 510 510" id="people">
    <title>age1-svg</title>
    <g id="Layer">
      <g id="Layer">
        <path id="Layer" d="M295.96 199.69C297.95 202.97 299.55 206.47 300.69 210.12C302.14 214.73 302.88 219.55 302.88 224.45C302.88 250.75 281.48 272.14 255.19 272.14C228.89 272.14 207.49 250.75 207.49 224.45C207.49 212.41 211.99 200.91 220.16 192.08C229.3 182.2 241.74 176.76 255.19 176.76C271.97 176.76 287.22 185.33 295.96 199.69L295.96 199.69Z"></path>
        <path id="Layer" d="M332.08 338.53C340.02 350.93 344.21 365.26 344.21 379.98L344.21 433.11L166.16 433.11L166.16 379.98C166.16 365.26 170.35 350.93 178.29 338.53C192.5 316.33 216.71 303.07 243.07 303.07L267.3 303.07C293.66 303.07 317.87 316.33 332.08 338.53Z"></path>
        <path id="Layer" d="M162.99 216.23C125.98 231.57 83.66 214.05 68.32 177.04C52.98 140.03 70.5 97.71 107.51 82.37C144.52 67.03 186.84 84.55 202.18 121.56C217.52 158.57 200 200.89 162.99 216.23Z"></path>
        <path id="Layer" d="M136.16 401.76L0 401.76L0 342.71C0 319.51 6.61 296.93 19.12 277.39C32.53 256.43 51.61 240.56 73.67 231.18C90.81 244.09 112.12 251.76 135.19 251.76C153.34 251.76 166.94 245.46 178.31 235.61C180.9 253.47 189.56 269.38 202.16 281.16C182.26 289.38 165.06 303.55 153.02 322.35C141.99 339.59 136.16 359.52 136.16 379.98L136.16 401.76Z"></path>
        <path id="Layer" d="M425.97 200.56C397.65 228.88 351.87 228.88 323.55 200.56C295.23 172.24 295.23 126.46 323.55 98.14C351.87 69.82 397.65 69.82 425.97 98.14C454.29 126.46 454.29 172.24 425.97 200.56Z"></path>
        <path id="Layer" d="M490.88 277.39C503.39 296.93 510 319.52 510 342.71L510 401.76L374.21 401.76L374.21 379.98C374.21 359.52 368.38 339.59 357.35 322.35C345.31 303.55 328.11 289.38 308.21 281.16C321.03 269.17 329.78 252.89 332.19 234.63C343.35 244.97 356.75 251.76 374.82 251.76C397.88 251.76 419.19 244.09 436.33 231.18C458.39 240.56 477.47 256.43 490.88 277.39L490.88 277.39Z"></path>
      </g>
    </g>
  </symbol>
</svg>