<svg version="1.2" baseProfile="tiny-ps" xmlns="http://www.w3.org/2000/svg" viewBox="0 0 510 510" width="510" height="510">
	<title>age1-svg</title>
	<style>
		tspan { white-space:pre }
		.shp0 { fill: #000000 } 
	</style>
	<g id="Layer">
		<g id="Layer">
			<path id="Layer" class="shp0" d="M295.96 199.69C297.95 202.97 299.55 206.47 300.69 210.12C302.14 214.73 302.88 219.55 302.88 224.45C302.88 250.75 281.48 272.14 255.19 272.14C228.89 272.14 207.49 250.75 207.49 224.45C207.49 212.41 211.99 200.91 220.16 192.08C229.3 182.2 241.74 176.76 255.19 176.76C271.97 176.76 287.22 185.33 295.96 199.69L295.96 199.69Z" />
			<path id="Layer" class="shp0" d="M332.08 338.53C340.02 350.93 344.21 365.26 344.21 379.98L344.21 433.11L166.16 433.11L166.16 379.98C166.16 365.26 170.35 350.93 178.29 338.53C192.5 316.33 216.71 303.07 243.07 303.07L267.3 303.07C293.66 303.07 317.87 316.33 332.08 338.53Z" />
			<path id="Layer" class="shp0" d="M162.99 216.23C125.98 231.57 83.66 214.05 68.32 177.04C52.98 140.03 70.5 97.71 107.51 82.37C144.52 67.03 186.84 84.55 202.18 121.56C217.52 158.57 200 200.89 162.99 216.23Z" />
			<path id="Layer" class="shp0" d="M136.16 401.76L0 401.76L0 342.71C0 319.51 6.61 296.93 19.12 277.39C32.53 256.43 51.61 240.56 73.67 231.18C90.81 244.09 112.12 251.76 135.19 251.76C153.34 251.76 166.94 245.46 178.31 235.61C180.9 253.47 189.56 269.38 202.16 281.16C182.26 289.38 165.06 303.55 153.02 322.35C141.99 339.59 136.16 359.52 136.16 379.98L136.16 401.76Z" />
			<path id="Layer" class="shp0" d="M425.97 200.56C397.65 228.88 351.87 228.88 323.55 200.56C295.23 172.24 295.23 126.46 323.55 98.14C351.87 69.82 397.65 69.82 425.97 98.14C454.29 126.46 454.29 172.24 425.97 200.56Z" />
			<path id="Layer" class="shp0" d="M490.88 277.39C503.39 296.93 510 319.52 510 342.71L510 401.76L374.21 401.76L374.21 379.98C374.21 359.52 368.38 339.59 357.35 322.35C345.31 303.55 328.11 289.38 308.21 281.16C321.03 269.17 329.78 252.89 332.19 234.63C343.35 244.97 356.75 251.76 374.82 251.76C397.88 251.76 419.19 244.09 436.33 231.18C458.39 240.56 477.47 256.43 490.88 277.39L490.88 277.39Z" />
		</g>
	</g>
</svg>