<svg xmlns="http://www.w3.org/2000/svg">
    <symbol id="symbol-teddy-bear-2" viewBox="0 0 23 32.5">
        <path d="M22.9,27.6c-0.3-1-0.9-1.8-1.8-2.3l-2-1.2c0.4-1,0.6-2,0.6-3.2c0-0.8-0.1-1.5-0.3-2.2l0.9-0.2
              c0.7-0.2,1.4-0.7,1.7-1.3c0.4-0.7,0.5-1.4,0.3-2.2c-0.4-1.5-2-2.4-3.5-2l-2.5,0.7c1.7-1.3,2.9-3.2,2.9-5.3c0,0,0-0.1,0-0.1
              c1.7-0.5,3-2.1,3-4C22,1.9,20.2,0,17.9,0c-1.5,0-2.8,0.8-3.5,2c-0.9-0.3-1.8-0.5-2.8-0.5c-1,0-1.9,0.2-2.8,0.5
              C7.9,0.8,6.6,0,5.1,0C2.8,0,0.9,1.9,0.9,4.2c0,1.9,1.2,3.5,3,4c0,0,0,0.1,0,0.1c0,2.2,1.1,4.1,2.9,5.3L4.3,13
              c-1.5-0.4-3.1,0.5-3.5,2c-0.2,0.7-0.1,1.5,0.3,2.2c0.4,0.7,1,1.1,1.7,1.3l0.9,0.2c-0.2,0.7-0.3,1.5-0.3,2.2c0,1.1,0.2,2.2,0.6,3.2
              l-2,1.2c-0.9,0.5-1.6,1.4-1.8,2.3c-0.3,1-0.1,2.1,0.4,2.9c1.1,1.9,3.4,2.5,5.3,1.5l4.7-2.6c0.3,0,0.7,0.1,1,0.1s0.7,0,1-0.1
              l4.7,2.6c1.9,1.1,4.2,0.4,5.3-1.5C23,29.7,23.1,28.6,22.9,27.6z M8.4,7.2c0.4,0,0.8,0.4,0.8,0.8c0,0.4-0.4,0.8-0.8,0.8
              C7.9,8.8,7.6,8.4,7.6,8C7.6,7.6,7.9,7.2,8.4,7.2z M14.6,7.3c0.4,0,0.8,0.4,0.8,0.8s-0.4,0.8-0.8,0.8s-0.8-0.4-0.8-0.8
              C13.8,7.6,14.2,7.3,14.6,7.3z M11.2,26.2c-0.9-0.9-3.4-3.4-3.4-3.4c-1-1-1-2.7,0-3.8c1-1,2.7-1,3.8,0c1-1,2.7-1,3.8,0
              c1,1,1,2.7,0,3.8c-0.1,0.1-2.5,2.5-3.4,3.4C11.6,26.4,11.4,26.4,11.2,26.2z M17.9,2.1c1.1,0,2.1,0.9,2.1,2.1
              c0,0.8-0.5,1.6-1.2,1.9c-0.5-1.3-1.3-2.3-2.5-3.1C16.6,2.4,17.2,2.1,17.9,2.1z M11.5,8.9c1.4,0,2.5,1,2.5,2.3s-1.1,2.3-2.5,2.3
              c-1.4,0-2.5-1-2.5-2.3C9,9.9,10.1,8.9,11.5,8.9z M3.1,4.2C3.1,3,4,2.1,5.1,2.1c0.7,0,1.3,0.3,1.7,0.8c-1.1,0.8-2,1.9-2.5,3.1
              C3.6,5.8,3.1,5,3.1,4.2z">
        </path>
        <ellipse cx="11.5" cy="10.3" rx="1.1" ry="1"></ellipse>
    </symbol>
    <symbol id="symbol-credit-card" viewBox="0 0 22 18">
        <path d="M11.7,12.5h5.9c0.2,0,0.4-0.1,0.4-0.4V8.8c0-0.2-0.1-0.4-0.4-0.4h-5.9c-0.2,0-0.4,0.1-0.4,0.4v3.3
              C11.4,12.3,11.5,12.5,11.7,12.5z M12.1,9.2h5.1v2.6h-5.1V9.2z">
        </path>
        <path d="M1.8,7.7h2.9c0.2,0,0.4-0.1,0.4-0.4C5.1,7.1,5,7,4.8,7h-3C1.6,7,1.5,7.1,1.5,7.3C1.5,7.6,1.6,7.7,1.8,7.7z"></path>
        <path d="M6.2,7.7h2.9c0.2,0,0.4-0.1,0.4-0.4C9.5,7.1,9.4,7,9.2,7h-3C6,7,5.9,7.1,5.9,7.3C5.9,7.6,6,7.7,6.2,7.7z"></path>
        <path d="M1.8,9.2h4.8C6.8,9.2,7,9,7,8.8S6.8,8.4,6.6,8.4H1.8c-0.2,0-0.4,0.1-0.4,0.4S1.6,9.2,1.8,9.2z"></path>
        <path d="M9.2,8.4H8.1c-0.2,0-0.4,0.1-0.4,0.4s0.1,0.4,0.4,0.4h1.1c0.2,0,0.4-0.1,0.4-0.4C9.6,8.5,9.4,8.4,9.2,8.4z"></path>
        <path d="M21.7,3.9c-0.3-0.3-0.6-0.5-1-0.6l-0.9-0.1v-1V1.5c0-0.8-0.7-1.5-1.5-1.5H1.5C0.7,0,0,0.7,0,1.5v0.7v2.9v8.1
              c0,0.7,0.4,1.2,1.1,1.4c0,0.7,0.5,1.4,1.3,1.5L19.3,18h0.1c0.7,0,1.4-0.6,1.5-1.2L22,5C22,4.6,21.9,4.2,21.7,3.9z M0.7,2.6H19v1v1.2
              H0.7V2.6z M1.5,0.7h16.9c0.4,0,0.7,0.3,0.7,0.7v0.4H0.7V1.5C0.7,1.1,1.1,0.7,1.5,0.7z M0.7,13.2V5.5H19v7.7c0,0.4-0.3,0.7-0.7,0.7
              H1.5l0,0C1.1,14,0.7,13.6,0.7,13.2z M21.3,4.8l-1.1,11.8c0,0.4-0.4,0.7-0.8,0.7L2.5,15.4c-0.4,0-0.6-0.3-0.7-0.7h16.5
              c0.8,0,1.5-0.7,1.5-1.5V5.1V3.9L20.6,4c0.2,0,0.4,0.1,0.5,0.3C21.2,4.4,21.3,4.6,21.3,4.8z">
        </path>
    </symbol>
    <symbol id="symbol-clock-2" viewBox="0 0 17 17">
        <path d="M10.2,15.5c-0.1,0-0.3,0.1-0.4,0.1c-0.4,0.1-0.6,0.4-0.5,0.8c0,0.2,0.1,0.3,0.3,0.4C9.7,17,9.9,17,10,17
              c0.2,0,0.3-0.1,0.5-0.1c0.4-0.1,0.6-0.5,0.5-0.8C11,15.7,10.6,15.4,10.2,15.5z">
        </path>
        <path d="M15.3,6.3c0,0.1,0.1,0.3,0.3,0.3c0.2,0.1,0.4,0.2,0.6,0.1c0.4-0.1,0.6-0.5,0.4-0.9c-0.1-0.2-0.1-0.3-0.2-0.5
              C16.3,5,15.9,4.9,15.5,5c-0.4,0.1-0.5,0.5-0.4,0.9C15.2,6,15.2,6.2,15.3,6.3z">
        </path>
        <path d="M12.4,14.6c-0.1,0.1-0.2,0.2-0.4,0.2c-0.3,0.2-0.4,0.6-0.3,0.9c0.1,0.1,0.1,0.2,0.2,0.2
              c0.2,0.1,0.5,0.2,0.7,0c0.1-0.1,0.3-0.2,0.4-0.3c0.3-0.2,0.4-0.6,0.2-1C13.2,14.4,12.8,14.3,12.4,14.6z">
        </path>
        <path d="M17,8.2c0-0.4-0.3-0.7-0.7-0.7c-0.4,0-0.7,0.3-0.7,0.7c0,0.1,0,0.3,0,0.4c0,0.2,0.1,0.5,0.3,0.6
              c0.1,0.1,0.2,0.1,0.4,0.1c0.4,0,0.7-0.3,0.7-0.7C17,8.6,17,8.4,17,8.2z">
        </path>
        <path d="M15.2,12.7c-0.3-0.2-0.7-0.2-1,0.1c-0.1,0.1-0.2,0.2-0.3,0.3c-0.2,0.3-0.2,0.7,0.1,1c0,0,0,0,0.1,0
              c0.3,0.2,0.7,0.2,0.9-0.1c0.1-0.1,0.2-0.3,0.3-0.4C15.5,13.4,15.5,13,15.2,12.7z">
        </path>
        <path d="M16.2,10.3c-0.4-0.1-0.7,0.1-0.9,0.5c0,0.1-0.1,0.3-0.1,0.4c-0.1,0.3,0,0.6,0.2,0.8c0,0,0.1,0.1,0.2,0.1
              c0.4,0.1,0.7,0,0.9-0.4c0.1-0.2,0.1-0.3,0.2-0.5C16.7,10.8,16.5,10.4,16.2,10.3z">
        </path>
        <path d="M7.2,15.6c-0.6-0.1-1.2-0.3-1.8-0.6c0,0,0,0,0,0c-0.1-0.1-0.3-0.1-0.4-0.2c0,0,0,0,0,0
              c-0.2-0.1-0.5-0.3-0.7-0.4c-3.2-2.3-4-6.8-1.7-10c0.5-0.7,1.1-1.3,1.8-1.8c0,0,0,0,0,0c2.3-1.6,5.5-1.7,8-0.1l-0.5,0.8
              c-0.1,0.2-0.1,0.4,0.2,0.4l2.3-0.2c0.3,0,0.4-0.3,0.3-0.5l-0.6-2.3c-0.1-0.3-0.2-0.3-0.4-0.1l-0.5,0.8c-1.8-1.2-4-1.7-6.2-1.3
              c-0.2,0-0.4,0.1-0.6,0.1c0,0,0,0,0,0c0,0,0,0,0,0C4.5,0.8,2.9,1.9,1.7,3.4c0,0,0,0,0,0c0,0.1-0.1,0.1-0.1,0.2
              C1.5,3.7,1.4,3.8,1.4,3.9c0,0,0,0,0,0c-1,1.5-1.4,3.2-1.3,5c0,0,0,0,0,0c0,0.2,0,0.3,0,0.5c0,0,0,0,0,0c0,0.2,0,0.3,0.1,0.5
              c0.3,1.8,1.1,3.4,2.4,4.6c0,0,0,0,0,0c0,0,0,0,0,0c0.3,0.3,0.7,0.6,1.1,0.9c1,0.7,2.2,1.2,3.4,1.4c0.4,0.1,0.7-0.2,0.8-0.6
              C7.9,16.1,7.6,15.7,7.2,15.6z">
        </path>
        <path d="M8.1,3C7.8,3,7.5,3.3,7.5,3.6v5.5l5,2.6c0.1,0,0.2,0.1,0.3,0.1c0.2,0,0.4-0.1,0.5-0.3c0.1-0.3,0-0.6-0.2-0.8
              L8.6,8.4V3.6C8.6,3.3,8.4,3,8.1,3z">
        </path>
    </symbol>
    <symbol id="symbol-ticket" viewBox="0 0 20 17">
        <path d="M20,7.3l-2.3-7C17.6,0.1,17.4,0,17.2,0L0.3,5.4C0.1,5.5,0,5.7,0,5.9l1.1,3.3c0,0,0,0,0,0v7.4
              c0,0.2,0.2,0.4,0.4,0.4h17.8c0.2,0,0.4-0.2,0.4-0.4V9.3c0-0.2-0.2-0.4-0.4-0.4h-3.1l3.5-1.1C19.9,7.7,20,7.5,20,7.3z M18.9,9.6
              v6.6h-17V9.6h2.2v4.3c0,0.2,0.2,0.4,0.4,0.4c0.2,0,0.4-0.2,0.4-0.4V9.6h8.9H18.9z M13.7,8.9H1.8L0.9,6.1l2.1-0.7l0.8,2.4
              C3.8,7.9,3.9,8,4.1,8c0,0,0.1,0,0.1,0c0.2-0.1,0.3-0.3,0.2-0.5L3.7,5.2l13.4-4.3l2.1,6.3L13.7,8.9z">
        </path>
        <path d="M16.5,2.6c-0.1-0.2-0.3-0.3-0.5-0.2L5.8,5.6C5.6,5.6,5.5,5.9,5.5,6.1c0.1,0.2,0.2,0.3,0.4,0.3
              c0,0,0.1,0,0.1,0L16.2,3C16.4,3,16.5,2.8,16.5,2.6z">
        </path>
        <path d="M14.7,5.1l1.9-0.6C16.9,4.4,17,4.2,16.9,4c-0.1-0.2-0.3-0.3-0.5-0.2l-1.9,0.6c-0.2,0.1-0.3,0.3-0.3,0.5
              c0.1,0.2,0.2,0.3,0.4,0.3C14.7,5.1,14.7,5.1,14.7,5.1z">
        </path>
        <path d="M16.4,6.8c0.1,0.2,0.2,0.3,0.4,0.3c0,0,0.1,0,0.1,0l0.6-0.2c0.2-0.1,0.3-0.3,0.3-0.5
              c-0.1-0.2-0.3-0.3-0.5-0.2l-0.6,0.2C16.4,6.4,16.3,6.6,16.4,6.8z">
        </path>
        <path d="M15.3,6.8L14.7,7c-0.2,0.1-0.3,0.3-0.3,0.5c0.1,0.2,0.2,0.3,0.4,0.3c0,0,0.1,0,0.1,0l0.6-0.2
              c0.2-0.1,0.3-0.3,0.3-0.5C15.7,6.8,15.5,6.7,15.3,6.8z">
        </path>
        <path d="M9.8,5.8L6.2,7C6,7,5.9,7.3,6,7.5C6,7.6,6.2,7.7,6.4,7.7c0,0,0.1,0,0.1,0l3.6-1.1c0.2-0.1,0.3-0.3,0.3-0.5
              C10.2,5.9,10,5.8,9.8,5.8z">
        </path>
        <path d="M4.4,14.8c-0.2,0-0.4,0.2-0.4,0.4v0.2c0,0.2,0.2,0.4,0.4,0.4c0.2,0,0.4-0.2,0.4-0.4v-0.2
              C4.8,15,4.7,14.8,4.4,14.8z">
        </path>
        <path d="M6.3,11.1c0,0.2,0.2,0.4,0.4,0.4h10.7c0.2,0,0.4-0.2,0.4-0.4s-0.2-0.4-0.4-0.4H6.7
              C6.5,10.7,6.3,10.9,6.3,11.1z">
        </path>
        <path d="M17.4,12.2h-2c-0.2,0-0.4,0.2-0.4,0.4c0,0.2,0.2,0.4,0.4,0.4h2c0.2,0,0.4-0.2,0.4-0.4
              C17.8,12.3,17.6,12.2,17.4,12.2z">
        </path>
        <path d="M17.4,14.7h-0.6c-0.2,0-0.4,0.2-0.4,0.4s0.2,0.4,0.4,0.4h0.6c0.2,0,0.4-0.2,0.4-0.4S17.6,14.7,17.4,14.7z"></path>
        <path d="M15.3,14.7h-0.6c-0.2,0-0.4,0.2-0.4,0.4s0.2,0.4,0.4,0.4h0.6c0.2,0,0.4-0.2,0.4-0.4S15.6,14.7,15.3,14.7z"></path>
        <path d="M10.4,12.2H6.7c-0.2,0-0.4,0.2-0.4,0.4c0,0.2,0.2,0.4,0.4,0.4h3.7c0.2,0,0.4-0.2,0.4-0.4
              C10.8,12.3,10.7,12.2,10.4,12.2z">
        </path>
    </symbol>
    <symbol id="symbol-click" viewBox="0 0 17 20">
        <path d="M14.9,6.1c-0.3,0-0.6,0.1-0.8,0.2c-0.3-0.8-1-1.3-1.9-1.3c-0.3,0-0.6,0.1-0.9,0.2c-0.3-0.7-1-1.1-1.8-1.1
              c-0.2,0-0.4,0-0.7,0.1V2c0-1.1-0.9-2-2-2s-2,0.9-2,2v8.1L3.3,8.4l0,0C2.9,8,2.4,7.8,1.9,7.8l0,0c-0.5,0-1,0.2-1.4,0.6
              c-0.7,0.7-0.7,1.7-0.1,2.7c0.8,1.4,1.6,2.7,2.4,3.8c0.5,0.8,1.1,1.6,1.4,2.3c0.3,0.6,1.2,2.4,1.2,2.4C5.5,19.8,5.8,20,6,20h8.7
              c0.3,0,0.6-0.2,0.7-0.5c0.2-0.5,1.6-4.9,1.6-6.7V8.1C16.9,7,16,6.1,14.9,6.1z M14.2,8.1c0-0.4,0.3-0.7,0.7-0.7s0.7,0.3,0.7,0.7v4.7
              c0,1.1-0.9,4.2-1.4,5.8H6.5c-0.3-0.6-0.8-1.7-1.1-2.1C5,15.8,4.5,15,3.9,14.2c-0.7-1.1-1.6-2.4-2.3-3.7c-0.2-0.3-0.4-0.8-0.1-1.1
              C1.6,9.3,1.8,9.2,2,9.2s0.3,0.1,0.5,0.2l2.6,3c0.2,0.2,0.5,0.3,0.8,0.2s0.4-0.4,0.4-0.6V2.1c0-0.4,0.3-0.7,0.7-0.7s0.7,0.3,0.7,0.7
              v6.4c0,0.4,0.3,0.7,0.7,0.7s0.7-0.3,0.7-0.7V6.3c0-0.4,0.3-0.7,0.7-0.7s0.7,0.3,0.7,0.7v3.1c0,0.4,0.3,0.7,0.7,0.7s0.7-0.3,0.7-0.7
              V7.2c0-0.4,0.3-0.7,0.7-0.7s0.7,0.3,0.7,0.7v3.1c0,0.4,0.3,0.7,0.7,0.7s0.7-0.3,0.7-0.7L14.2,8.1L14.2,8.1z">
        </path>
    </symbol>

</svg>
