
<svg xmlns="http://www.w3.org/2000/svg">
    <symbol id="symbol-arr-right" viewBox="0 0 10 17.8">
        <path d="M8.17,5.39,4.13.81C2.65-.85-.11,1.24,1.37,2.92L4.45,6.4,6,8.15c.15.17.41.4.64.64-.35.33-.78.65-1,.87-.63.64-1.26,1.28-1.86,1.94a24.15,24.15,0,0,0-3,4.08C-.35,17.6,2.86,18.94,4,17a22.77,22.77,0,0,1,3.27-4.09c1-1,2.83-2.26,3.17-3.71S9.08,6.41,8.17,5.39" transform="translate(-0.54 -0.2)"></path>
    </symbol>
    <symbol id="symbol-arr-left" viewBox="0 0 10 17.8">
        <path d="M2.3,12.6l4,4.6c1.5,1.7,4.2-0.4,2.8-2.1L6,11.6L4.4,9.8C4.3,9.6,4,9.4,3.8,9.2c0.3-0.3,0.8-0.6,1-0.9
              C5.4,7.7,6.1,7,6.7,6.4c1.1-1.3,2.1-2.6,3-4.1C10.8,0.4,7.6-1,6.5,1c-0.9,1.5-2,2.9-3.3,4.1c-1,1-2.8,2.3-3.2,3.7
              C-0.3,10.2,1.4,11.6,2.3,12.6">
        </path>
    </symbol>
</svg>
